<?xml version="1.0" standalone="no"?>
<!DOCTYPE svg PUBLIC "-//W3C//DTD SVG 20010904//EN"
 "http://www.w3.org/TR/2001/REC-SVG-20010904/DTD/svg10.dtd">
<svg version="1.0" xmlns="http://www.w3.org/2000/svg"
 width="64.000000pt" height="64.000000pt" viewBox="0 0 64.000000 64.000000"
 preserveAspectRatio="xMidYMid meet">

<g transform="translate(0.000000,64.000000) scale(0.100000,-0.100000)"
fill="#000000" stroke="none">
<path d="M0 386 l0 -255 32 10 c54 15 94 10 155 -18 81 -38 82 -38 44 -4 -24
21 -28 28 -14 25 22 -6 75 -49 69 -55 -3 -2 12 -4 31 -4 20 0 38 -6 40 -13 3
-8 -1 -10 -13 -5 -13 5 -15 3 -9 -8 7 -11 6 -12 -6 -3 -14 11 -54 16 -43 5 3
-3 10 -6 15 -6 5 0 9 -4 10 -10 2 -23 21 -45 39 -45 23 0 24 4 9 33 -9 18 -9
20 2 10 7 -7 21 -13 31 -13 23 0 23 -17 1 -23 -11 -3 -7 -5 10 -6 32 -1 33 4
7 47 -11 18 -18 37 -15 42 3 4 6 49 6 99 1 50 6 88 10 85 5 -3 9 7 9 22 0 15
-3 24 -6 21 -4 -3 -15 -2 -25 3 -11 6 -27 7 -41 1 -13 -5 -31 -12 -40 -15 -16
-5 -15 -8 7 -32 39 -42 27 -66 -22 -40 -61 31 -105 114 -84 155 9 16 18 19 47
14 32 -5 40 -1 78 36 34 34 45 39 49 27 4 -9 13 -16 22 -16 8 0 15 -5 15 -11
0 -6 9 -9 20 -6 26 7 26 -14 1 -69 -13 -28 -16 -46 -9 -57 5 -9 7 -58 5 -108
-2 -49 0 -84 4 -77 6 9 10 3 15 -18 6 -30 7 -31 23 -15 11 9 15 22 11 31 -16
34 -19 112 -7 149 8 21 11 46 7 57 -11 32 17 111 42 118 13 3 26 0 30 -7 13
-20 9 0 -8 43 -10 26 -14 52 -10 74 4 19 4 46 0 60 l-6 26 -269 0 -269 0 0
-254z m507 172 c-3 -7 -5 -2 -5 12 0 14 2 19 5 13 2 -7 2 -19 0 -25z m-117
-268 c0 -5 -2 -10 -4 -10 -3 0 -8 5 -11 10 -3 6 -1 10 4 10 6 0 11 -4 11 -10z
m-20 -34 c0 -3 -4 -8 -10 -11 -5 -3 -10 -1 -10 4 0 6 5 11 10 11 6 0 10 -2 10
-4z"/>
<path d="M366 363 c5 -5 12 -12 16 -18 4 -6 8 -2 8 8 0 9 -7 17 -17 17 -9 0
-12 -3 -7 -7z"/>
</g>
</svg>
